<mxfile host="65bd71144e">
    <diagram id="rwZVFnb9-4XuviEcM_qo" name="페이지-1">
        <mxGraphModel dx="468" dy="820" grid="1" gridSize="10" guides="1" tooltips="1" connect="1" arrows="1" fold="1" page="1" pageScale="1" pageWidth="827" pageHeight="1169" math="0" shadow="0">
            <root>
                <mxCell id="0"/>
                <mxCell id="1" parent="0"/>
                <mxCell id="2" value="Button" style="whiteSpace=wrap;html=1;fontSize=18;" vertex="1" parent="1">
                    <mxGeometry x="110" y="400" width="120" height="60" as="geometry"/>
                </mxCell>
                <mxCell id="6" value="" style="edgeStyle=none;html=1;fontSize=18;" edge="1" parent="1" source="4" target="2">
                    <mxGeometry relative="1" as="geometry"/>
                </mxCell>
                <mxCell id="8" value="" style="edgeStyle=none;html=1;fontSize=18;" edge="1" parent="1" source="4" target="7">
                    <mxGeometry relative="1" as="geometry"/>
                </mxCell>
                <mxCell id="4" value="Listener" style="whiteSpace=wrap;html=1;fontSize=18;" vertex="1" parent="1">
                    <mxGeometry x="110" y="260" width="120" height="60" as="geometry"/>
                </mxCell>
                <mxCell id="14" value="" style="edgeStyle=none;html=1;fontSize=18;" edge="1" parent="1" source="7" target="13">
                    <mxGeometry relative="1" as="geometry"/>
                </mxCell>
                <mxCell id="7" value="Controller" style="whiteSpace=wrap;html=1;fontSize=18;" vertex="1" parent="1">
                    <mxGeometry x="310" y="260" width="120" height="60" as="geometry"/>
                </mxCell>
                <mxCell id="12" value="" style="edgeStyle=none;html=1;fontSize=18;" edge="1" parent="1" source="9" target="11">
                    <mxGeometry relative="1" as="geometry"/>
                </mxCell>
                <mxCell id="9" value="View" style="whiteSpace=wrap;html=1;fontSize=18;" vertex="1" parent="1">
                    <mxGeometry x="510" y="260" width="120" height="60" as="geometry"/>
                </mxCell>
                <mxCell id="11" value="Led" style="whiteSpace=wrap;html=1;fontSize=18;" vertex="1" parent="1">
                    <mxGeometry x="510" y="400" width="120" height="60" as="geometry"/>
                </mxCell>
                <mxCell id="15" style="edgeStyle=orthogonalEdgeStyle;html=1;exitX=1;exitY=0.5;exitDx=0;exitDy=0;entryX=0.5;entryY=0;entryDx=0;entryDy=0;fontSize=18;rounded=0;" edge="1" parent="1" source="13" target="9">
                    <mxGeometry relative="1" as="geometry"/>
                </mxCell>
                <mxCell id="13" value="Service" style="whiteSpace=wrap;html=1;fontSize=18;" vertex="1" parent="1">
                    <mxGeometry x="310" y="120" width="120" height="60" as="geometry"/>
                </mxCell>
            </root>
        </mxGraphModel>
    </diagram>
    <diagram id="JMYObuIH1QSER_L9iBrt" name="페이지-2">
        <mxGraphModel dx="516" dy="525" grid="1" gridSize="10" guides="1" tooltips="1" connect="1" arrows="1" fold="1" page="1" pageScale="1" pageWidth="827" pageHeight="1169" math="0" shadow="0">
            <root>
                <mxCell id="Q607Y2rKxZQUFugG3BdK-0"/>
                <mxCell id="Q607Y2rKxZQUFugG3BdK-1" parent="Q607Y2rKxZQUFugG3BdK-0"/>
                <mxCell id="XUThxh31XiLSm-2z7mRA-0" value="Button" style="whiteSpace=wrap;html=1;fontSize=18;" vertex="1" parent="Q607Y2rKxZQUFugG3BdK-1">
                    <mxGeometry x="150" y="220" width="120" height="60" as="geometry"/>
                </mxCell>
                <mxCell id="XUThxh31XiLSm-2z7mRA-1" value="" style="edgeStyle=none;html=1;fontSize=18;" edge="1" parent="Q607Y2rKxZQUFugG3BdK-1" source="XUThxh31XiLSm-2z7mRA-2" target="XUThxh31XiLSm-2z7mRA-0">
                    <mxGeometry relative="1" as="geometry"/>
                </mxCell>
                <mxCell id="Xn4zP_rzqBb-KwKWEkbt-1" style="edgeStyle=orthogonalEdgeStyle;rounded=0;html=1;exitX=1;exitY=0.5;exitDx=0;exitDy=0;fontSize=18;" edge="1" parent="Q607Y2rKxZQUFugG3BdK-1" source="XUThxh31XiLSm-2z7mRA-2" target="Xn4zP_rzqBb-KwKWEkbt-0">
                    <mxGeometry relative="1" as="geometry"/>
                </mxCell>
                <mxCell id="XUThxh31XiLSm-2z7mRA-2" value="Listener" style="whiteSpace=wrap;html=1;fontSize=18;" vertex="1" parent="Q607Y2rKxZQUFugG3BdK-1">
                    <mxGeometry x="150" y="80" width="120" height="60" as="geometry"/>
                </mxCell>
                <mxCell id="XUThxh31XiLSm-2z7mRA-3" value="LED" style="whiteSpace=wrap;html=1;fontSize=18;" vertex="1" parent="Q607Y2rKxZQUFugG3BdK-1">
                    <mxGeometry x="540" y="220" width="120" height="60" as="geometry"/>
                </mxCell>
                <mxCell id="XUThxh31XiLSm-2z7mRA-6" value="이벤트 감시 기능" style="text;html=1;align=center;verticalAlign=middle;resizable=0;points=[];autosize=1;strokeColor=none;fillColor=none;fontSize=18;" vertex="1" parent="Q607Y2rKxZQUFugG3BdK-1">
                    <mxGeometry x="130" y="50" width="150" height="30" as="geometry"/>
                </mxCell>
                <mxCell id="z8fZrk0xQkMEeZACTWGU-1" style="edgeStyle=orthogonalEdgeStyle;rounded=0;html=1;exitX=1;exitY=0.5;exitDx=0;exitDy=0;entryX=0;entryY=0.5;entryDx=0;entryDy=0;fontSize=18;" edge="1" parent="Q607Y2rKxZQUFugG3BdK-1" source="Xn4zP_rzqBb-KwKWEkbt-0" target="z8fZrk0xQkMEeZACTWGU-0">
                    <mxGeometry relative="1" as="geometry"/>
                </mxCell>
                <mxCell id="Xn4zP_rzqBb-KwKWEkbt-0" value="controller" style="whiteSpace=wrap;html=1;fontSize=18;" vertex="1" parent="Q607Y2rKxZQUFugG3BdK-1">
                    <mxGeometry x="350" y="80" width="120" height="60" as="geometry"/>
                </mxCell>
                <mxCell id="z8fZrk0xQkMEeZACTWGU-2" style="edgeStyle=orthogonalEdgeStyle;rounded=0;html=1;exitX=0.5;exitY=1;exitDx=0;exitDy=0;fontSize=18;" edge="1" parent="Q607Y2rKxZQUFugG3BdK-1" source="z8fZrk0xQkMEeZACTWGU-0" target="XUThxh31XiLSm-2z7mRA-3">
                    <mxGeometry relative="1" as="geometry"/>
                </mxCell>
                <mxCell id="z8fZrk0xQkMEeZACTWGU-0" value="View" style="whiteSpace=wrap;html=1;fontSize=18;" vertex="1" parent="Q607Y2rKxZQUFugG3BdK-1">
                    <mxGeometry x="540" y="80" width="120" height="60" as="geometry"/>
                </mxCell>
            </root>
        </mxGraphModel>
    </diagram>
</mxfile>